<svg width="29" height="29" viewBox="0 0 29 29" fill="none" xmlns="http://www.w3.org/2000/svg">
<path fill-rule="evenodd" clip-rule="evenodd" d="M8.41969 15.7083H20.5803C21.1103 15.7083 21.5677 15.7083 21.9462 15.7341C22.3448 15.7613 22.7434 15.8211 23.1372 15.9843C24.0255 16.3522 24.7311 17.0579 25.0991 17.9461C25.2622 18.3399 25.322 18.7386 25.3492 19.1371C25.375 19.5156 25.375 19.973 25.375 20.503V20.5803C25.375 21.1104 25.375 21.5677 25.3492 21.9462C25.322 22.3448 25.2622 22.7434 25.0991 23.1372C24.7311 24.0254 24.0255 24.7311 23.1372 25.0991C22.7434 25.2622 22.3448 25.322 21.9462 25.3492C21.5677 25.375 21.1104 25.375 20.5803 25.375H8.41968C7.88965 25.375 7.43231 25.375 7.05379 25.3492C6.65525 25.322 6.2566 25.2622 5.86277 25.0991C4.97455 24.7311 4.26885 24.0254 3.90094 23.1372C3.73781 22.7434 3.67799 22.3448 3.6508 21.9462C3.62497 21.5677 3.62499 21.1103 3.625 20.5803V20.503C3.62499 19.973 3.62497 19.5156 3.6508 19.1371C3.67799 18.7386 3.73781 18.3399 3.90094 17.9461C4.26885 17.0579 4.97455 16.3522 5.86277 15.9843C6.2566 15.8211 6.65525 15.7613 7.05379 15.7341C7.43231 15.7083 7.88965 15.7083 8.41969 15.7083ZM7.21829 18.1452C6.9428 18.164 6.83788 18.1961 6.78759 18.217C6.49152 18.3396 6.25629 18.5748 6.13365 18.8709C6.11282 18.9212 6.08066 19.0261 6.06186 19.3016C6.04232 19.588 6.04167 19.9621 6.04167 20.5417C6.04167 21.1212 6.04232 21.4954 6.06186 21.7817C6.08066 22.0572 6.11282 22.1621 6.13365 22.2124C6.25629 22.5085 6.49152 22.7437 6.78759 22.8664C6.83788 22.8872 6.9428 22.9193 7.21829 22.9381C7.50465 22.9577 7.87879 22.9583 8.45833 22.9583H20.5417C21.1212 22.9583 21.4954 22.9577 21.7817 22.9381C22.0572 22.9193 22.1621 22.8872 22.2124 22.8664C22.5085 22.7437 22.7437 22.5085 22.8664 22.2124C22.8872 22.1621 22.9193 22.0572 22.9381 21.7817C22.9577 21.4954 22.9583 21.1212 22.9583 20.5417C22.9583 19.9621 22.9577 19.588 22.9381 19.3016C22.9193 19.0261 22.8872 18.9212 22.8664 18.8709C22.7437 18.5748 22.5085 18.3396 22.2124 18.217C22.1621 18.1961 22.0572 18.164 21.7817 18.1452C21.4954 18.1257 21.1212 18.125 20.5417 18.125H8.45833C7.87879 18.125 7.50465 18.1257 7.21829 18.1452Z" fill="#262626"/>
<path fill-rule="evenodd" clip-rule="evenodd" d="M8.41969 3.625H20.5803C21.1103 3.62499 21.5677 3.62497 21.9462 3.6508C22.3448 3.67799 22.7434 3.73781 23.1372 3.90094C24.0255 4.26885 24.7311 4.97455 25.0991 5.86277C25.2622 6.2566 25.322 6.65525 25.3492 7.05379C25.375 7.43231 25.375 7.88965 25.375 8.41968V8.49699C25.375 9.02702 25.375 9.48436 25.3492 9.86288C25.322 10.2614 25.2622 10.6601 25.0991 11.0539C24.7311 11.9421 24.0255 12.6478 23.1372 13.0157C22.7434 13.1789 22.3448 13.2387 21.9462 13.2659C21.5677 13.2917 21.1104 13.2917 20.5803 13.2917H8.41968C7.88965 13.2917 7.43231 13.2917 7.05379 13.2659C6.65525 13.2387 6.2566 13.1789 5.86277 13.0157C4.97455 12.6478 4.26885 11.9421 3.90094 11.0539C3.73781 10.6601 3.67799 10.2614 3.6508 9.86288C3.62497 9.48436 3.62499 9.02702 3.625 8.49698V8.41969C3.62499 7.88965 3.62497 7.43231 3.6508 7.05379C3.67799 6.65525 3.73781 6.2566 3.90094 5.86277C4.26885 4.97455 4.97455 4.26885 5.86277 3.90094C6.2566 3.73781 6.65525 3.67799 7.05379 3.6508C7.43231 3.62497 7.88965 3.62499 8.41969 3.625ZM7.21829 6.06186C6.9428 6.08066 6.83788 6.11282 6.78759 6.13365C6.49152 6.25629 6.25629 6.49152 6.13365 6.78759C6.11282 6.83788 6.08066 6.9428 6.06186 7.21829C6.04232 7.50465 6.04167 7.87879 6.04167 8.45833C6.04167 9.03788 6.04232 9.41202 6.06186 9.69838C6.08066 9.97387 6.11282 10.0788 6.13365 10.1291C6.25629 10.4252 6.49152 10.6604 6.78759 10.783C6.83788 10.8039 6.9428 10.836 7.21829 10.8548C7.50465 10.8743 7.87879 10.875 8.45833 10.875H20.5417C21.1212 10.875 21.4954 10.8743 21.7817 10.8548C22.0572 10.836 22.1621 10.8039 22.2124 10.783C22.5085 10.6604 22.7437 10.4252 22.8664 10.1291C22.8872 10.0788 22.9193 9.97387 22.9381 9.69838C22.9577 9.41202 22.9583 9.03788 22.9583 8.45833C22.9583 7.87879 22.9577 7.50465 22.9381 7.21829C22.9193 6.9428 22.8872 6.83788 22.8664 6.78759C22.7437 6.49152 22.5085 6.25629 22.2124 6.13365C22.1621 6.11282 22.0572 6.08066 21.7817 6.06186C21.4954 6.04232 21.1212 6.04167 20.5417 6.04167H8.45833C7.87879 6.04167 7.50465 6.04232 7.21829 6.06186Z" fill="#171717"/>
</svg>
