<svg width="25" height="24" viewBox="0 0 25 24" fill="none" xmlns="http://www.w3.org/2000/svg">
<path fill-rule="evenodd" clip-rule="evenodd" d="M12.2126 6C7.3574 6 5.10246 9.77258 4.30948 11.5534C4.18167 11.8405 4.18167 12.1595 4.30948 12.4466C5.10246 14.2274 7.3574 18 12.2126 18C17.0679 18 19.3227 14.2273 20.1155 12.4465C20.2433 12.1595 20.2433 11.8405 20.1155 11.5535C19.3227 9.77274 17.0679 6 12.2126 6ZM2.48242 10.7399C3.35175 8.78756 6.10388 4 12.2126 4C18.3215 4 21.0734 8.78782 21.9426 10.7401C22.3009 11.5448 22.3009 12.4552 21.9426 13.2599C21.0734 15.2122 18.3215 20 12.2126 20C6.10388 20 3.35175 15.2124 2.48242 13.2601C2.12402 12.4552 2.12402 11.5448 2.48242 10.7399Z" fill="#262626"/>
<path fill-rule="evenodd" clip-rule="evenodd" d="M12.2124 8C10.0033 8 8.2124 9.79086 8.2124 12C8.2124 14.2091 10.0033 16 12.2124 16C14.4215 16 16.2124 14.2091 16.2124 12C16.2124 9.79086 14.4215 8 12.2124 8ZM12.1277 10.0018C12.1558 10.0006 12.184 10 12.2124 10C13.317 10 14.2124 10.8954 14.2124 12C14.2124 13.1046 13.317 14 12.2124 14C11.1078 14 10.2124 13.1046 10.2124 12C10.2124 11.9716 10.213 11.9434 10.2142 11.9153C10.3701 11.9701 10.5377 12 10.7124 12C11.5408 12 12.2124 11.3284 12.2124 10.5C12.2124 10.3253 12.1825 10.1577 12.1277 10.0018Z" fill="#171717"/>
</svg>
