<svg width="20" height="20" viewBox="0 0 20 20" fill="none" xmlns="http://www.w3.org/2000/svg">
<path d="M19.9929 10.2391C19.9943 9.55886 19.9353 8.87983 19.8168 8.20963H10.2082V12.0552H15.7108C15.598 12.6696 15.3594 13.2552 15.0094 13.7767C14.6595 14.2983 14.2053 14.7449 13.6744 15.0897V17.585H16.9571C17.9595 16.6371 18.7476 15.4934 19.2706 14.228C19.7936 12.9625 20.0396 11.6036 19.9929 10.2391Z" fill="#4285F4"/>
<path d="M10.186 19.9962C12.668 20.0647 15.0831 19.2025 16.9389 17.5856L13.6563 15.0903C12.8658 15.5863 11.9703 15.8992 11.038 16.0054C10.1057 16.1115 9.1609 16.008 8.27545 15.7028C7.38999 15.3976 6.5871 14.8987 5.92772 14.2439C5.26834 13.5891 4.7698 12.7957 4.46994 11.9238H1.0826V14.4958C1.93093 16.1495 3.23143 17.5396 4.83893 18.5109C6.44642 19.4822 8.29766 19.9964 10.186 19.9962Z" fill="#34A853"/>
<path d="M4.46723 11.9152C4.04047 10.675 4.04047 9.3318 4.46723 8.09159V5.51697H1.08328C0.370946 6.90848 0 8.44384 0 10.0007C0 11.5576 0.370946 13.093 1.08328 14.4845L4.46723 11.9152Z" fill="#FBBC04"/>
<path d="M10.1989 3.95424C11.6532 3.93101 13.0586 4.46857 14.1125 5.45116L17.0253 2.59995C15.1775 0.902579 12.7318 -0.0287731 10.1996 0.000677757C8.30862 -0.000314952 6.4546 0.514051 4.84463 1.48632C3.23466 2.45858 1.93215 3.85046 1.0826 5.50647L4.4713 8.07842C4.86683 6.89064 5.63196 5.85412 6.65925 5.11443C7.68653 4.37473 8.92436 3.96901 10.1989 3.95424Z" fill="#EA4335"/>
</svg>
